<svg width="170" height="135" viewBox="0 0 170 135" fill="none" xmlns="http://www.w3.org/2000/svg">
<path d="M84.0341 124.259C84.678 124.259 85.4186 124.119 86.2557 123.839C87.0928 123.56 87.7689 123.196 88.2841 122.749L153.386 66.0594C155.061 64.6058 156.316 62.9566 157.153 61.1116C157.991 59.2667 158.409 57.3938 158.409 55.493C158.409 53.5921 157.991 51.6913 157.153 49.7904C156.316 47.8896 155.061 46.2124 153.386 44.7588L118.614 14.5689C116.939 13.1154 115.008 12.0252 112.818 11.2984C110.629 10.5716 108.439 10.2082 106.25 10.2082C104.061 10.2082 101.903 10.5716 99.7784 11.2984C97.6534 12.0252 95.7538 13.1154 94.0795 14.5689L90.6023 17.5879L106.25 31.3411C107.924 32.9065 109.405 34.7235 110.693 36.792C111.981 38.8606 112.625 41.1248 112.625 43.5847C112.625 47.8337 110.725 51.5795 106.926 54.8221C103.127 58.0647 98.7803 59.686 93.8864 59.686C90.6667 59.686 87.9943 59.2667 85.8693 58.4281C83.7443 57.5895 81.7803 56.3875 79.9773 54.8221L65.875 42.5784L30.9091 72.936C30.2652 73.4951 29.8144 74.0821 29.5568 74.6971C29.2992 75.312 29.1705 75.955 29.1705 76.6259C29.1705 78.0794 29.7178 79.2814 30.8125 80.2319C31.9072 81.1823 33.2917 81.6575 34.9659 81.6575C35.7386 81.6575 36.4792 81.4898 37.1875 81.1543C37.8958 80.8189 38.5076 80.4275 39.0227 79.9803L65.6818 56.8347L73.7955 63.879L47.3295 86.8569C46.6856 87.4159 46.2348 88.0309 45.9773 88.7018C45.7197 89.3727 45.5909 90.0436 45.5909 90.7145C45.5909 92.0562 46.1705 93.2303 47.3295 94.2366C48.4886 95.2429 49.8409 95.7461 51.3864 95.7461C52.1591 95.7461 52.8996 95.6063 53.608 95.3268C54.3163 95.0473 54.928 94.6839 55.4432 94.2366L82.1023 71.091L90.2159 78.1353L63.75 101.113C63.2348 101.56 62.8163 102.147 62.4943 102.874C62.1723 103.601 62.0114 104.3 62.0114 104.971C62.0114 106.313 62.5909 107.487 63.75 108.493C64.9091 109.499 66.2614 110.002 67.8068 110.002C68.5795 110.002 69.2879 109.891 69.9318 109.667C70.5758 109.443 71.2197 109.052 71.8636 108.493L98.5227 85.3474L106.636 92.3917L79.9773 115.537C79.3333 116.096 78.8826 116.711 78.625 117.382C78.3674 118.053 78.2386 118.668 78.2386 119.227C78.2386 120.792 78.7538 122.022 79.7841 122.917C80.8144 123.811 82.2311 124.259 84.0341 124.259ZM84.0341 134.322C79.7841 134.322 75.9848 132.952 72.6364 130.213C69.2879 127.473 67.2917 124.091 66.6477 120.066C62.2689 119.507 58.5985 117.941 55.6364 115.369C52.6742 112.798 50.8712 109.611 50.2273 105.809C45.8485 105.25 42.2102 103.657 39.3125 101.029C36.4148 98.4017 34.6439 95.2429 34 91.5531C29.2349 90.994 25.3068 89.3168 22.2159 86.5214C19.125 83.7261 17.5795 80.3716 17.5795 76.4581C17.5795 74.5573 17.9981 72.6564 18.8352 70.7556C19.6723 68.8548 20.928 67.1775 22.6023 65.724L65.875 28.1544L87.125 46.6037C88.1553 47.4982 89.2822 48.1971 90.5057 48.7002C91.7292 49.2034 92.9205 49.455 94.0795 49.455C95.7538 49.455 97.3314 48.8121 98.8125 47.5262C100.294 46.2403 101.034 44.8706 101.034 43.417C101.034 42.7461 100.809 41.9914 100.358 41.1528C99.9072 40.3142 99.1667 39.4476 98.1364 38.5531L70.5114 14.5689C68.8371 13.1154 66.9053 12.0252 64.7159 11.2984C62.5265 10.5716 60.3371 10.2082 58.1477 10.2082C55.9583 10.2082 53.8011 10.5716 51.6761 11.2984C49.5511 12.0252 47.6515 13.1154 45.9773 14.5689L16.6136 40.0626C14.8106 41.628 13.5549 43.2772 12.8466 45.0104C12.1383 46.7435 11.7197 48.6723 11.5909 50.7968C11.4621 53.033 11.9451 55.1855 13.0398 57.254C14.1345 59.3226 15.4545 61.1955 17 62.8727L8.69318 70.0847C6.11742 67.6248 4.02462 64.6617 2.41477 61.1955C0.804924 57.7293 0 54.2071 0 50.629C0 47.2746 0.740531 44.0599 2.22159 40.9851C3.70265 37.9102 5.79545 35.1987 8.5 32.8506L37.6705 7.52464C40.5038 5.06473 43.7235 3.24774 47.3295 2.0737C50.9356 0.899646 54.6061 0.312622 58.3409 0.312622C62.0758 0.312622 65.714 0.899646 69.2557 2.0737C72.7973 3.24774 75.9848 5.06473 78.8182 7.52464L82.2954 10.5436L85.7727 7.52464C88.6061 5.06473 91.8258 3.24774 95.4318 2.0737C99.0379 0.899646 102.708 0.312622 106.443 0.312622C110.178 0.312622 113.816 0.899646 117.358 2.0737C120.9 3.24774 124.087 5.06473 126.92 7.52464L161.5 37.5468C164.333 40.0067 166.458 42.802 167.875 45.9328C169.292 49.0636 170 52.2503 170 55.493C170 58.7356 169.292 61.8943 167.875 64.9692C166.458 68.0441 164.333 70.8115 161.5 73.2714L96.3977 129.794C94.7235 131.247 92.8239 132.365 90.6989 133.148C88.5739 133.931 86.3523 134.322 84.0341 134.322Z" fill="#BFBC37"/>
</svg>
