<svg width="183" height="184" viewBox="0 0 183 184" fill="none" xmlns="http://www.w3.org/2000/svg">
<path d="M92.415 145.441C94.855 145.441 96.9137 144.599 98.5912 142.914C100.269 141.229 101.107 139.161 101.107 136.71C101.107 134.259 100.269 132.192 98.5912 130.507C96.9137 128.822 94.855 127.979 92.415 127.979C89.975 127.979 87.9163 128.822 86.2388 130.507C84.5613 132.192 83.7225 134.259 83.7225 136.71C83.7225 139.161 84.5613 141.229 86.2388 142.914C87.9163 144.599 89.975 145.441 92.415 145.441ZM84.4088 111.896H97.905C97.905 107.913 98.4006 104.275 99.3919 100.982C100.383 97.6885 103.471 93.8973 108.656 89.6084C113.384 85.6258 116.739 81.7198 118.721 77.8904C120.704 74.061 121.695 69.8486 121.695 65.2533C121.695 57.1349 119.064 50.6249 113.803 45.7233C108.542 40.8216 101.565 38.3708 92.8725 38.3708C85.4 38.3708 78.8044 40.2472 73.0856 44C67.3669 47.7529 63.2113 52.9226 60.6188 59.5092L72.7425 64.1045C74.42 59.8155 76.9362 56.4839 80.2912 54.1097C83.6462 51.7354 87.6112 50.5483 92.1862 50.5483C97.3712 50.5483 101.565 51.9652 104.768 54.799C107.97 57.6328 109.571 61.2707 109.571 65.7128C109.571 69.0827 108.58 72.2611 106.597 75.2481C104.615 78.235 101.718 81.3369 97.905 84.5536C93.33 88.5362 89.9369 92.4805 87.7256 96.3865C85.5144 100.292 84.4088 105.462 84.4088 111.896ZM91.5 183.812C78.995 183.812 67.1762 181.4 56.0437 176.574C44.9112 171.749 35.1894 165.163 26.8781 156.815C18.5669 148.467 12.0094 138.702 7.20562 127.52C2.40187 116.338 0 104.467 0 91.906C0 79.1924 2.40187 67.2446 7.20562 56.0627C12.0094 44.8808 18.5669 35.1541 26.8781 26.8825C35.1894 18.611 44.9112 12.0627 56.0437 7.2376C67.1762 2.41253 78.995 0 91.5 0C104.157 0 116.053 2.41253 127.185 7.2376C138.318 12.0627 148.001 18.611 156.236 26.8825C164.471 35.1541 170.991 44.8808 175.794 56.0627C180.598 67.2446 183 79.1924 183 91.906C183 104.467 180.598 116.338 175.794 127.52C170.991 138.702 164.471 148.467 156.236 156.815C148.001 165.163 138.318 171.749 127.185 176.574C116.053 181.4 104.157 183.812 91.5 183.812ZM91.5 170.026C113.155 170.026 131.531 162.406 146.629 147.165C161.726 131.923 169.275 113.504 169.275 91.906C169.275 70.1549 161.726 51.6971 146.629 36.5327C131.531 21.3682 113.155 13.7859 91.5 13.7859C69.9975 13.7859 51.6594 21.3682 36.4856 36.5327C21.3119 51.6971 13.725 70.1549 13.725 91.906C13.725 113.504 21.3119 131.923 36.4856 147.165C51.6594 162.406 69.9975 170.026 91.5 170.026Z" fill="#BFBC37"/>
</svg>
