<svg width="188" height="83" viewBox="0 0 188 83" fill="none" xmlns="http://www.w3.org/2000/svg">
<path d="M0 82.2162V73.1843C0 68.7536 2.74167 65.1749 8.225 62.4483C13.7083 59.7217 20.7583 58.3584 29.375 58.3584C31.0722 58.3584 32.6389 58.3868 34.075 58.4436C35.5111 58.5004 36.9472 58.6424 38.3833 58.8697C37.3389 60.801 36.5556 62.7607 36.0333 64.7489C35.5111 66.737 35.25 68.8672 35.25 71.1394V82.2162H0ZM47 82.2162V71.1394C47 63.7548 51.341 57.7904 60.0229 53.2461C68.7049 48.7017 80.0306 46.4296 94 46.4296C108.1 46.4296 119.458 48.7017 128.075 53.2461C136.692 57.7904 141 63.7548 141 71.1394V82.2162H47ZM152.75 82.2162V71.1394C152.75 68.8672 152.522 66.737 152.065 64.7489C151.608 62.7607 150.857 60.801 149.812 58.8697C151.249 58.6424 152.685 58.5004 154.121 58.4436C155.557 58.3868 157.058 58.3584 158.625 58.3584C167.503 58.3584 174.618 59.7217 179.971 62.4483C185.324 65.1749 188 68.7536 188 73.1843V82.2162H152.75ZM94 56.6543C83.5556 56.6543 75.0695 58.0176 68.5417 60.7442C62.0139 63.4708 58.75 66.9358 58.75 71.1394V71.9914H129.25V70.9689C129.25 66.879 126.019 63.4708 119.556 60.7442C113.094 58.0176 104.575 56.6543 94 56.6543ZM29.375 53.2461C25.5889 53.2461 22.3576 52.0816 19.6813 49.7526C17.0049 47.4236 15.6667 44.6118 15.6667 41.3172C15.6667 38.0225 17.0049 35.2107 19.6813 32.8818C22.3576 30.5528 25.5889 29.3883 29.375 29.3883C33.1611 29.3883 36.3924 30.5528 39.0688 32.8818C41.7451 35.2107 43.0833 38.0225 43.0833 41.3172C43.0833 44.6118 41.7451 47.4236 39.0688 49.7526C36.3924 52.0816 33.1611 53.2461 29.375 53.2461ZM158.625 53.2461C154.839 53.2461 151.608 52.0816 148.931 49.7526C146.255 47.4236 144.917 44.6118 144.917 41.3172C144.917 38.0225 146.255 35.2107 148.931 32.8818C151.608 30.5528 154.839 29.3883 158.625 29.3883C162.411 29.3883 165.642 30.5528 168.319 32.8818C170.995 35.2107 172.333 38.0225 172.333 41.3172C172.333 44.6118 170.995 47.4236 168.319 49.7526C165.642 52.0816 162.411 53.2461 158.625 53.2461ZM94 41.3172C87.4722 41.3172 81.9236 39.329 77.3542 35.3528C72.7847 31.3765 70.5 26.5481 70.5 20.8677C70.5 15.0737 72.7847 10.2169 77.3542 6.29744C81.9236 2.37796 87.4722 0.418213 94 0.418213C100.658 0.418213 106.24 2.37796 110.744 6.29744C115.248 10.2169 117.5 15.0737 117.5 20.8677C117.5 26.5481 115.248 31.3765 110.744 35.3528C106.24 39.329 100.658 41.3172 94 41.3172ZM94 10.643C90.7361 10.643 87.9618 11.6086 85.6771 13.54C83.3924 15.4713 82.25 17.9139 82.25 20.8677C82.25 23.7079 83.3924 26.1221 85.6771 28.1102C87.9618 30.0984 90.7361 31.0924 94 31.0924C97.3944 31.0924 100.201 30.0984 102.421 28.1102C104.64 26.1221 105.75 23.7079 105.75 20.8677C105.75 17.9139 104.64 15.4713 102.421 13.54C100.201 11.6086 97.3944 10.643 94 10.643Z" fill="#BFBC37"/>
</svg>
